<svg width="48" height="48" viewBox="0 0 48 48" fill="none" xmlns="http://www.w3.org/2000/svg">
<g clip-path="url(#clip0_821_6097)">
<mask id="mask0_821_6097" style="mask-type:alpha" maskUnits="userSpaceOnUse" x="0" y="3" width="47" height="43">
<path d="M40.3601 14.3569C40.6933 9.08077 36.2503 4.30451 30.1967 3.58251C24.143 2.80498 18.6448 6.41495 17.7006 11.58C5.98213 10.1915 -0.626876 19.5219 0.872647 27.6304C1.76125 32.4622 4.98245 36.0722 9.5921 37.9049C9.92532 38.016 10.0364 38.2937 9.86979 38.6825C9.36995 39.7377 6.8152 45.5692 6.8152 45.5692L18.5892 40.3486C19.0891 42.7367 22.0881 44.5139 25.6426 44.3473C29.3081 44.2363 32.6403 42.0703 32.8069 39.5155C34.3065 39.6266 41.3042 39.3489 45.0808 32.9065C48.6908 26.6863 46.5803 18.6333 40.3601 14.3569Z" fill="#545454"/>
</mask>
<g mask="url(#mask0_821_6097)">
<path d="M40.0386 13.8627C40.3718 8.58657 35.9288 3.81031 29.8752 3.08831C23.8215 2.31078 18.3233 5.92075 17.3791 11.0858C5.66063 9.69732 -0.948379 19.0277 0.551145 27.1362C1.43975 31.968 4.66095 35.578 9.27059 37.4107C9.60382 37.5218 9.7149 37.7995 9.54828 38.1883C9.04844 39.2435 6.4937 45.075 6.4937 45.075L18.2677 39.8544C18.7676 42.2425 21.7666 44.0197 25.321 43.8531C28.9865 43.7421 32.3188 41.5761 32.4854 39.0213C33.985 39.1324 40.9827 38.8547 44.7593 32.4123C48.3693 26.1921 46.2588 18.1391 40.0386 13.8627Z" fill="#545454"/>
<path d="M30.2462 42.1844C30.2462 49.6399 24.3257 55.5604 16.8702 55.5604C9.41472 55.5604 3.4942 49.6399 3.4942 42.1844C3.4942 34.729 9.41472 28.8084 16.8702 28.8084C24.3257 28.8084 30.2462 34.729 30.2462 42.1844Z" fill="#FF6600"/>
<path d="M56.5169 23.5488C56.5169 31.0043 50.5964 36.9248 43.1409 36.9248C35.6854 36.9248 29.7649 31.0043 29.7649 23.5488C29.7649 16.0933 35.6854 10.1728 43.1409 10.1728C50.5964 10.1728 56.5169 16.0933 56.5169 23.5488Z" fill="#FBC400"/>
<path d="M23.9612 23.3237C23.9612 30.7791 18.0407 36.6996 10.5852 36.6996C3.12975 36.6996 -2.79077 30.7791 -2.79077 23.3237C-2.79077 15.8682 3.12975 9.94765 10.5852 9.94765C18.0407 9.94765 23.9612 15.8682 23.9612 23.3237Z" fill="#4C90F6"/>
<path d="M50.6786 42.1844C50.6786 49.6399 44.758 55.5604 37.3026 55.5604C29.8471 55.5604 23.9266 49.6399 23.9266 42.1844C23.9266 34.729 29.8471 28.8084 37.3026 28.8084C44.758 28.8084 50.6786 34.729 50.6786 42.1844Z" fill="#3BB15D"/>
<path d="M40.3497 11.4234C40.3497 18.8789 34.4291 24.7994 26.9737 24.7994C19.5182 24.7994 13.5977 18.8789 13.5977 11.4234C13.5977 3.96792 19.5182 -1.9526 26.9737 -1.9526C34.2098 -1.9526 40.3497 3.96792 40.3497 11.4234Z" fill="#ED4D3C"/>
<g opacity="0.5">
<path opacity="0.5" d="M29.8017 23.5488C29.8017 23.7681 29.8017 24.2067 29.8017 24.426C35.7222 23.1103 40.1078 17.8476 40.1078 11.4885C40.1078 11.2692 40.1078 10.8307 40.1078 10.6114C34.4065 11.9271 29.8017 17.1898 29.8017 23.5488Z" fill="#FC0007"/>
</g>
</g>
<path d="M28.5659 4.05739C29.0935 4.05739 29.5682 4.11015 30.0958 4.1629C35.8459 4.90145 40.0135 9.38552 39.7497 14.3971C45.6581 18.4064 47.6628 26.1084 44.181 32.0168C40.963 37.556 35.2129 38.2945 33.1027 38.2945C32.8917 38.2945 32.6807 38.2945 32.5752 38.2945C32.4697 40.7212 29.2517 42.7786 25.77 42.8841C25.6645 42.8841 25.5062 42.8841 25.4007 42.8841C22.1827 42.8841 19.545 41.2487 19.0703 39.0331L7.88647 43.9919C7.88647 43.9919 10.3659 38.4528 10.7879 37.4505C10.9462 37.0812 10.8407 36.8174 10.5242 36.7119C6.1456 34.9183 3.08589 31.5421 2.24183 26.9525C0.922986 19.8307 6.30386 11.6539 16.0105 11.6539C16.6963 11.6539 17.4349 11.7067 18.2262 11.8122C19.0703 7.27537 23.4488 4.05739 28.5659 4.05739ZM28.5659 2C23.1323 2 18.4372 5.11247 16.6963 9.59653C16.4853 9.59653 16.2216 9.59653 16.0105 9.59653C10.9462 9.59653 6.51488 11.6012 3.50792 15.1884C0.659217 18.6174 -0.554118 23.1542 0.237188 27.3745C1.08125 31.9641 3.9827 35.7624 8.3085 38.0308C7.46444 39.9827 6.09285 43.0424 5.98734 43.2006C5.61806 43.9919 5.82908 44.8887 6.40937 45.5218C6.8314 45.9438 7.35894 46.1548 7.88647 46.1548C8.15024 46.1548 8.46676 46.1021 8.73053 45.9966L18.1207 41.829C19.5978 43.7809 22.341 45.047 25.4007 45.047C25.559 45.047 25.7172 45.047 25.8227 45.047C29.6737 44.8888 32.9445 42.9896 34.1578 40.4047C36.7427 40.1937 42.5456 39.0331 46.0274 33.1774C49.8257 26.6887 47.9793 18.2481 41.8598 13.4476C41.5433 7.75015 36.69 2.89681 30.3595 2.10551C29.7793 2.05275 29.1462 2 28.5659 2Z" fill="white"/>
<g filter="url(#filter0_d_821_6097)">
<path d="M33.1027 16.7183C32.2059 16.7183 31.3619 16.8238 30.5706 17.0875C27.0888 18.1954 24.8732 21.3078 24.8732 24.9478C24.8732 25.7391 25.2952 26.1612 26.0865 26.1612H38.8001C38.6946 26.636 38.5364 27.1635 38.2726 27.5855C37.2175 29.6957 35.4767 30.7507 33.1027 30.7507C32.0477 30.7507 31.0453 30.4342 30.043 29.8539C29.7793 29.6957 29.5155 29.5902 29.3045 29.5902C28.7242 29.5902 28.1439 30.3815 28.1439 30.9618C28.1439 31.331 28.3549 31.6476 28.7769 31.9113C30.0958 32.7554 31.5729 33.1774 33.1555 33.1774C35.3712 33.1774 37.3758 32.3861 39.0112 30.7507C40.5938 29.1681 41.4378 27.1635 41.4378 24.8951C41.4378 23.3652 41.0158 21.9409 40.2772 20.622C38.5891 18.0371 36.2152 16.7183 33.1027 16.7183ZM27.4053 23.9983C27.8274 21.7826 29.1462 20.3583 31.3619 19.6725C31.8894 19.4615 32.4697 19.4087 33.1027 19.4087C34.1051 19.4087 34.9491 19.6197 35.7404 20.0417C37.3758 20.8858 38.3781 22.2046 38.7474 24.051L27.4053 23.9983Z" fill="white"/>
<path d="M17.4349 17.0875C16.6436 16.8238 15.7995 16.7183 14.9027 16.7183C11.7903 16.7183 9.41635 18.0371 7.83374 20.6748C7.04243 21.9936 6.67316 23.418 6.67316 24.9478C6.67316 27.2162 7.46446 29.1681 9.09983 30.8035C10.7352 32.3861 12.6871 33.2302 14.9555 33.2302C16.5381 33.2302 18.0152 32.8081 19.334 31.9641C19.7561 31.7003 19.9671 31.3838 19.9671 31.0145C19.9671 30.4342 19.3868 29.6429 18.8065 29.6429C18.5955 29.6429 18.279 29.7484 18.068 29.9067C17.0656 30.487 16.0633 30.8035 15.0082 30.8035C12.6343 30.8035 10.8935 29.7484 9.83838 27.6383C9.62736 27.2162 9.4691 26.7415 9.31084 26.2139H22.0245C22.8158 26.2139 23.2378 25.7919 23.2378 24.9478C23.1323 21.3078 20.9167 18.1954 17.4349 17.0875ZM9.25809 23.9983C9.62736 22.1519 10.6297 20.833 12.265 19.989C13.0564 19.567 13.9004 19.3559 14.9027 19.3559C15.5358 19.3559 16.1161 19.4615 16.6436 19.6197C18.8065 20.3055 20.1781 21.7299 20.6001 23.9455L9.25809 23.9983Z" fill="white"/>
</g>
</g>
<defs>
<filter id="filter0_d_821_6097" x="-8.32684" y="1.71826" width="64.7647" height="46.5119" filterUnits="userSpaceOnUse" color-interpolation-filters="sRGB">
<feFlood flood-opacity="0" result="BackgroundImageFix"/>
<feColorMatrix in="SourceAlpha" type="matrix" values="0 0 0 0 0 0 0 0 0 0 0 0 0 0 0 0 0 0 127 0" result="hardAlpha"/>
<feOffset/>
<feGaussianBlur stdDeviation="7.5"/>
<feComposite in2="hardAlpha" operator="out"/>
<feColorMatrix type="matrix" values="0 0 0 0 0 0 0 0 0 0 0 0 0 0 0 0 0 0 0.87 0"/>
<feBlend mode="normal" in2="BackgroundImageFix" result="effect1_dropShadow_821_6097"/>
<feBlend mode="normal" in="SourceGraphic" in2="effect1_dropShadow_821_6097" result="shape"/>
</filter>
<clipPath id="clip0_821_6097">
<rect width="48" height="48" fill="white"/>
</clipPath>
</defs>
</svg>
